<?xml version="1.0" encoding="UTF-8" standalone="no"?>
<svg
   width="20"
   height="20"
   viewBox="0 0 20 20"
   fill="none"
   version="1.1"
   id="svg3481"
   sodipodi:docname="delete.svg"
   xmlns:inkscape="http://www.inkscape.org/namespaces/inkscape"
   xmlns:sodipodi="http://sodipodi.sourceforge.net/DTD/sodipodi-0.dtd"
   xmlns="http://www.w3.org/2000/svg"
   xmlns:svg="http://www.w3.org/2000/svg">
  <defs
     id="defs3485" />
  <sodipodi:namedview
     id="namedview3483"
     pagecolor="#ffffff"
     bordercolor="#000000"
     borderopacity="0.25"
     inkscape:showpageshadow="2"
     inkscape:pageopacity="0.0"
     inkscape:pagecheckerboard="0"
     inkscape:deskcolor="#d1d1d1"
     showgrid="false" />
  <path
     fill-rule="evenodd"
     clip-rule="evenodd"
     d="M 2.5,5 C 2.5,4.72386 2.72386,4.5 3,4.5 h 14 c 0.2761,0 0.5,0.22386 0.5,0.5 0,0.27614 -0.2239,0.5 -0.5,0.5 H 3 C 2.72386,5.5 2.5,5.27614 2.5,5 Z"
     fill="black"
     id="path3475"
     style="fill:#f55123;fill-opacity:1" />
  <path
     fill-rule="evenodd"
     clip-rule="evenodd"
     d="M 3.4584,4.5 H 16.5059 L 15.6411,15.6926 C 15.5405,16.9947 14.4546,18 13.1486,18 H 6.84639 c -1.3034,0 -2.3881,-1.0014 -2.49204,-2.3006 z m 1.0832,1 0.80957,10.1196 C 5.41353,16.3992 6.06435,17 6.84639,17 h 6.30221 c 0.7836,0 1.4351,-0.6032 1.4955,-1.3845 L 15.4256,5.5 Z"
     fill="black"
     id="path3477"
     style="fill:#f55123;fill-opacity:1" />
  <path
     fill-rule="evenodd"
     clip-rule="evenodd"
     d="M 13,5.5 H 7 V 3.46875 C 7,2.65758 7.65758,2 8.46875,2 H 11.5312 C 12.3424,2 13,2.65758 13,3.46875 Z M 8.46875,3 C 8.20987,3 8,3.20987 8,3.46875 V 4.5 h 4 V 3.46875 C 12,3.20987 11.7901,3 11.5312,3 Z"
     fill="black"
     id="path3479"
     style="fill:#f55123;fill-opacity:1" />
</svg>
