<?xml version="1.0" encoding="UTF-8" standalone="no"?>
<svg
   width="20"
   height="20"
   viewBox="0 0 20 20"
   fill="none"
   version="1.1"
   id="svg12"
   sodipodi:docname="like.svg"
   xmlns:inkscape="http://www.inkscape.org/namespaces/inkscape"
   xmlns:sodipodi="http://sodipodi.sourceforge.net/DTD/sodipodi-0.dtd"
   xmlns="http://www.w3.org/2000/svg"
   xmlns:svg="http://www.w3.org/2000/svg">
  <defs
     id="defs16" />
  <sodipodi:namedview
     id="namedview14"
     pagecolor="#ffffff"
     bordercolor="#000000"
     borderopacity="0.25"
     inkscape:showpageshadow="2"
     inkscape:pageopacity="0.0"
     inkscape:pagecheckerboard="0"
     inkscape:deskcolor="#d1d1d1"
     showgrid="false" />
  <path
     fill-rule="evenodd"
     clip-rule="evenodd"
     d="M 3.03396,4.05857 C 2.26589,4.75224 1.76684,5.83284 1.99493,7.42928 2.22332,9.02783 3.26494,10.6852 4.80436,12.3478 6.25865,13.9184 8.10962,15.4437 9.99996,16.874 11.8903,15.4437 13.7413,13.9184 15.1956,12.3478 16.735,10.6852 17.7766,9.02783 18.005,7.4293 18.233,5.83285 17.734,4.75224 16.9659,4.05856 16.1766,3.34572 15.055,3 14,3 12.1319,3 11.0923,4.08479 10.5177,4.68443 10.4581,4.7466 10.4035,4.80356 10.3535,4.85355 10.1582,5.04882 9.84166,5.04882 9.6464,4.85355 9.59641,4.80356 9.54182,4.7466 9.48224,4.68443 8.90757,4.08479 7.86797,3 5.99995,3 4.94495,3 3.82325,3.34573 3.03396,4.05857 Z M 2.36371,3.31643 C 3.37369,2.40427 4.75202,2 5.99995,2 8.07123,2 9.34539,3.11257 9.99996,3.77862 10.6545,3.11257 11.9287,2 14,2 c 1.2479,0 2.6262,0.40428 3.6362,1.31644 1.0312,0.93132 1.6306,2.35071 1.3587,4.25426 -0.2716,1.90147 -1.48,3.7441 -3.0655,5.4565 -1.5939,1.7214 -3.623,3.368 -5.6294,4.8728 -0.1778,0.1333 -0.42227,0.1333 -0.60005,0 C 7.69353,16.3952 5.66443,14.7485 4.0706,13.0272 2.48503,11.3148 1.27665,9.47217 1.00498,7.57072 0.733012,5.66716 1.33249,4.24776 2.36371,3.31643 Z"
     fill="#000000"
     id="path10" />
  <path
     style="fill:#ff0000;stroke-width:0.0194742"
     d="M 9.5409899,16.506625 C 7.8294101,15.191167 6.6071237,14.142323 5.4991494,13.038322 4.8882232,12.429587 4.6075223,12.127122 4.18854,11.626095 2.8846773,10.066913 2.171174,8.6755003 1.9961774,7.3507398 1.7597923,5.5612559 2.4542174,4.1890682 3.962999,3.4642896 4.3434421,3.2815348 4.7330666,3.1601397 5.2141108,3.0744813 5.5443753,3.0156719 6.2076255,3.0017726 6.5576613,3.0463254 7.0145176,3.1044745 7.4028259,3.2172789 7.8040483,3.4084037 8.3492142,3.6680968 8.6909609,3.9212685 9.280613,4.5022674 9.75409,4.9687961 9.8045831,5.0040132 10,5.0040132 c 0.19515,0 0.247309,-0.036122 0.710126,-0.4917882 0.595743,-0.5865372 0.936584,-0.8406276 1.470201,-1.0960056 0.414754,-0.1984929 0.798076,-0.3108438 1.262012,-0.369894 0.350035,-0.044553 1.013286,-0.030654 1.34355,0.028156 0.963897,0.1716389 1.731489,0.5476597 2.311722,1.1324446 0.758731,0.7646825 1.077159,1.8691444 0.90647,3.1440743 -0.234335,1.7503276 -1.41005,3.6376087 -3.615591,5.8038197 -1.114596,1.09472 -2.383845,2.172109 -4.145063,3.518492 L 10,16.859403 Z"
     id="path208" />
  <path
     style="fill:#ff0000;stroke-width:0.00390625"
     d="M 4.4322121,11.931295 C 3.5040342,10.868044 2.8494167,9.8859996 2.4404941,8.9433594 2.1319059,8.2320078 1.9748105,7.5714477 1.944878,6.859375 1.9400443,6.7443844 1.9422577,6.5105409 1.949167,6.40625 1.9980334,5.6686428 2.2154676,5.0507424 2.6116332,4.5236663 2.7483262,4.3418038 2.9186513,4.160417 3.0981481,4.0055548 3.8042357,3.3963722 4.8316661,3.0267034 5.8803895,3.0045062 c 0.4587886,-0.00971 0.8577871,0.036412 1.2621886,0.1459034 0.7266508,0.1967405 1.3758117,0.5852483 2.0078125,1.2016288 0.080061,0.078083 0.1349098,0.1333891 0.3161489,0.3187901 0.02779,0.028428 0.049682,0.052533 0.04865,0.053566 C 9.5141562,4.725427 9.4465957,4.6610602 9.3650539,4.581357 9.0160836,4.2402535 8.8558629,4.0933519 8.6699219,3.944011 8.4422148,3.7611252 8.2474191,3.6335229 7.9910695,3.4993236 7.5631871,3.2753265 7.1757,3.1431435 6.734375,3.0706287 6.4919855,3.0308013 6.3368141,3.0196038 6.0273437,3.0196077 5.6644405,3.0196124 5.3955001,3.0390731 5.1601562,3.0823579 4.9482238,3.1213369 4.7330773,3.174167 4.5390707,3.2348681 4.0263026,3.3953039 3.5262493,3.6631288 3.1457404,3.9811257 2.9829359,4.1171839 2.8174503,4.2842012 2.6918155,4.4392521 2.2764294,4.9518968 2.0325142,5.5732489 1.9671955,6.2851562 1.9539263,6.4297773 1.9512577,6.4975592 1.9513551,6.6875 c 1.14e-4,0.2222711 0.00666,0.3449582 0.029371,0.5507812 0.1347915,1.2213817 0.7178656,2.4789977 1.802017,3.8867188 0.1780311,0.231165 0.4835974,0.602778 0.6656866,0.80957 0.02748,0.03121 0.038137,0.0458 0.033297,0.04559 -0.00401,-1.72e-4 -0.025622,-0.0215 -0.049515,-0.04887 z"
     id="path210" />
</svg>
