<?xml version="1.0" encoding="UTF-8" standalone="no"?>
<svg
   width="20"
   height="20"
   viewBox="0 0 20 20"
   fill="none"
   version="1.1"
   id="svg2001"
   sodipodi:docname="like.svg"
   inkscape:export-filename="like-hover.png"
   inkscape:export-xdpi="96"
   inkscape:export-ydpi="96"
   xmlns:inkscape="http://www.inkscape.org/namespaces/inkscape"
   xmlns:sodipodi="http://sodipodi.sourceforge.net/DTD/sodipodi-0.dtd"
   xmlns="http://www.w3.org/2000/svg"
   xmlns:svg="http://www.w3.org/2000/svg">
  <defs
     id="defs2005" />
  <sodipodi:namedview
     id="namedview2003"
     pagecolor="#ffffff"
     bordercolor="#000000"
     borderopacity="0.25"
     inkscape:showpageshadow="2"
     inkscape:pageopacity="0.0"
     inkscape:pagecheckerboard="0"
     inkscape:deskcolor="#d1d1d1"
     showgrid="false" />
  <path
     fill-rule="evenodd"
     clip-rule="evenodd"
     d="M 3.03396,4.05857 C 2.26589,4.75224 1.76684,5.83284 1.99493,7.42928 2.22332,9.02783 3.26494,10.6852 4.80436,12.3478 6.25865,13.9184 8.10962,15.4437 9.99996,16.874 11.8903,15.4437 13.7413,13.9184 15.1956,12.3478 16.735,10.6852 17.7766,9.02783 18.005,7.4293 18.233,5.83285 17.734,4.75224 16.9659,4.05856 16.1766,3.34572 15.055,3 14,3 12.1319,3 11.0923,4.08479 10.5177,4.68443 10.4581,4.7466 10.4035,4.80356 10.3535,4.85355 10.1582,5.04882 9.84166,5.04882 9.6464,4.85355 9.59641,4.80356 9.54182,4.7466 9.48224,4.68443 8.90757,4.08479 7.86797,3 5.99995,3 4.94495,3 3.82325,3.34573 3.03396,4.05857 Z M 2.36371,3.31643 C 3.37369,2.40427 4.75202,2 5.99995,2 8.07123,2 9.34539,3.11257 9.99996,3.77862 10.6545,3.11257 11.9287,2 14,2 c 1.2479,0 2.6262,0.40428 3.6362,1.31644 1.0312,0.93132 1.6306,2.35071 1.3587,4.25426 -0.2716,1.90147 -1.48,3.7441 -3.0655,5.4565 -1.5939,1.7214 -3.623,3.368 -5.6294,4.8728 -0.1778,0.1333 -0.42227,0.1333 -0.60005,0 C 7.69353,16.3952 5.66443,14.7485 4.0706,13.0272 2.48503,11.3148 1.27665,9.47217 1.00498,7.57072 0.733012,5.66716 1.33249,4.24776 2.36371,3.31643 Z"
     fill="black"
     id="path1999"
     style="fill:#f55123;fill-opacity:1" />
</svg>
