<?xml version="1.0" encoding="UTF-8" standalone="no"?>
<svg
   width="20"
   height="20"
   viewBox="0 0 20 20"
   fill="none"
   version="1.1"
   id="svg2001"
   sodipodi:docname="like.svg"
   xmlns:inkscape="http://www.inkscape.org/namespaces/inkscape"
   xmlns:sodipodi="http://sodipodi.sourceforge.net/DTD/sodipodi-0.dtd"
   xmlns="http://www.w3.org/2000/svg"
   xmlns:svg="http://www.w3.org/2000/svg">
  <defs
     id="defs2005" />
  <sodipodi:namedview
     id="namedview2003"
     pagecolor="#ffffff"
     bordercolor="#000000"
     borderopacity="0.25"
     inkscape:showpageshadow="2"
     inkscape:pageopacity="0.0"
     inkscape:pagecheckerboard="0"
     inkscape:deskcolor="#d1d1d1"
     showgrid="false" />
  <path
     fill-rule="evenodd"
     clip-rule="evenodd"
     d="M 3.03396,4.05857 C 2.26589,4.75224 1.76684,5.83284 1.99493,7.42928 2.22332,9.02783 3.26494,10.6852 4.80436,12.3478 6.25865,13.9184 8.10962,15.4437 9.99996,16.874 11.8903,15.4437 13.7413,13.9184 15.1956,12.3478 16.735,10.6852 17.7766,9.02783 18.005,7.4293 18.233,5.83285 17.734,4.75224 16.9659,4.05856 16.1766,3.34572 15.055,3 14,3 12.1319,3 11.0923,4.08479 10.5177,4.68443 10.4581,4.7466 10.4035,4.80356 10.3535,4.85355 10.1582,5.04882 9.84166,5.04882 9.6464,4.85355 9.59641,4.80356 9.54182,4.7466 9.48224,4.68443 8.90757,4.08479 7.86797,3 5.99995,3 4.94495,3 3.82325,3.34573 3.03396,4.05857 Z M 2.36371,3.31643 C 3.37369,2.40427 4.75202,2 5.99995,2 8.07123,2 9.34539,3.11257 9.99996,3.77862 10.6545,3.11257 11.9287,2 14,2 c 1.2479,0 2.6262,0.40428 3.6362,1.31644 1.0312,0.93132 1.6306,2.35071 1.3587,4.25426 -0.2716,1.90147 -1.48,3.7441 -3.0655,5.4565 -1.5939,1.7214 -3.623,3.368 -5.6294,4.8728 -0.1778,0.1333 -0.42227,0.1333 -0.60005,0 C 7.69353,16.3952 5.66443,14.7485 4.0706,13.0272 2.48503,11.3148 1.27665,9.47217 1.00498,7.57072 0.733012,5.66716 1.33249,4.24776 2.36371,3.31643 Z"
     fill="black"
     id="path1999"
     style="fill:#f55123;fill-opacity:1" />
  <path
     style="fill:#ff0000;fill-opacity:1;stroke:none;stroke-width:0.0126582;stroke-opacity:1"
     d="M 9.8164557,16.72552 C 7.8883424,15.255541 6.5158877,14.078497 5.3227848,12.87166 4.6195634,12.160343 4.1342419,11.605398 3.6542708,10.963784 2.7020834,9.6909215 2.1645813,8.5378106 2.0009911,7.4169791 1.9232683,6.8844651 1.9354927,6.2574351 2.0320778,5.8224281 2.1470799,5.3044739 2.3670437,4.8370865 2.681252,4.443038 2.7977323,4.2969601 3.0311632,4.0625782 3.1772152,3.9450544 3.4718377,3.7079801 3.936244,3.4460766 4.3014223,3.3110539 4.7742889,3.1362142 5.2752386,3.0355843 5.778481,3.014345 6.8418191,2.969467 7.7542452,3.2483647 8.5863999,3.8726304 c 0.2343022,0.1757689 0.3772064,0.3045385 0.7423758,0.668948 0.4366561,0.4357473 0.4523437,0.446896 0.6414329,0.4558464 0.1258784,0.00596 0.2097944,-0.013242 0.2967724,-0.067904 0.025,-0.015714 0.210131,-0.1931938 0.411392,-0.3943997 0.357893,-0.3577934 0.501078,-0.4868356 0.734469,-0.6619232 0.660451,-0.4954656 1.354619,-0.7660767 2.175766,-0.848191 0.202149,-0.020215 0.675404,-0.01692 0.898734,0.00626 1.035107,0.1074216 1.964521,0.5197817 2.595481,1.1515561 0.261255,0.2615936 0.450606,0.5271794 0.614199,0.8614845 0.159283,0.3255024 0.256705,0.6461028 0.317334,1.0443038 0.02678,0.1758687 0.02983,0.238182 0.02946,0.6012658 -4.43e-4,0.4358642 -0.01791,0.6298901 -0.08948,0.9936709 -0.273416,1.3897604 -1.152063,2.888637 -2.672916,4.559702 -0.395227,0.434262 -1.156798,1.188191 -1.730789,1.713421 -0.52427,0.479733 -1.316517,1.152335 -2.050633,1.740947 -0.493895,0.396004 -1.483768,1.16327 -1.5005235,1.16308 -0.00319,0 -0.085553,-0.06086 -0.1830208,-0.135174 z"
     id="path3440" />
</svg>
